M48
; DRILL file {KiCad (5.1.4)-1} date 7/21/2020 1:34:33 PM
; FORMAT={-:-/ absolute / metric / decimal}
; #@! TF.CreationDate,2020-07-21T13:34:33-04:00
; #@! TF.GenerationSoftware,Kicad,Pcbnew,(5.1.4)-1
FMAT,2
METRIC
T1C0.200
T2C0.400
T3C0.500
T4C0.550
T5C0.600
T6C0.700
T7C0.800
T8C0.900
T9C1.000
T10C1.250
T11C1.500
T12C3.100
T13C3.200
%
G90
G05
T1
X134.62Y-101.6
X134.62Y-102.616
X135.89Y-101.6
X135.89Y-102.616
T2
X93.078Y-129.631
X118.742Y-108.989
T3
X145.606Y-71.056
X146.875Y-69.787
X146.875Y-72.326
T4
X92.202Y-68.866
X92.202Y-70.866
X112.522Y-69.406
X117.522Y-69.406
X158.242Y-92.456
X163.242Y-92.456
T5
X154.432Y-79.375
X154.432Y-86.995
X127.762Y-77.216
X135.382Y-77.216
X202.692Y-111.633
X202.692Y-119.253
X130.556Y-73.406
X138.176Y-73.406
X198.882Y-111.633
X198.882Y-119.253
X144.272Y-89.916
X144.272Y-97.536
T6
X96.647Y-53.404
X96.647Y-61.023
X99.187Y-53.404
X99.187Y-61.023
X101.727Y-53.404
X101.727Y-61.023
X104.267Y-53.404
X104.267Y-61.023
X106.807Y-53.404
X106.807Y-61.023
X109.347Y-53.404
X109.347Y-61.023
X111.887Y-53.404
X111.887Y-61.023
X159.702Y-79.438
X159.702Y-87.058
X162.243Y-79.438
X162.243Y-87.058
X164.782Y-79.438
X164.782Y-87.058
X167.322Y-79.438
X167.322Y-87.058
X102.171Y-81.534
X102.171Y-96.774
X104.712Y-81.534
X104.712Y-96.774
X107.251Y-81.534
X107.251Y-96.774
X109.791Y-81.534
X109.791Y-96.774
X112.331Y-81.534
X112.331Y-96.774
X114.871Y-81.534
X114.871Y-96.774
X117.411Y-81.534
X117.411Y-96.774
X119.951Y-81.534
X119.951Y-96.774
X122.491Y-81.534
X122.491Y-96.774
X125.031Y-96.774
X127.572Y-81.534
X127.572Y-96.774
X130.112Y-81.534
X130.112Y-96.774
X132.651Y-81.534
X132.651Y-96.774
X135.191Y-81.534
X135.191Y-96.774
X137.731Y-81.534
X137.731Y-96.774
X200.152Y-82.296
X200.152Y-84.836
X200.152Y-87.376
X200.152Y-89.916
X200.152Y-92.456
X200.152Y-94.996
X200.152Y-97.536
X200.152Y-100.076
X200.152Y-102.616
X200.152Y-105.156
T7
X125.031Y-81.534
T8
X154.838Y-59.563
X157.378Y-59.563
X159.918Y-59.563
X171.933Y-70.764
X177.013Y-70.764
T9
X84.634Y-125.131
X84.634Y-129.631
X91.134Y-125.131
X91.134Y-129.631
T10
X144.958Y-56.769
X169.748Y-56.769
T11
X181.102Y-52.578
X181.102Y-60.078
X134.112Y-52.578
X134.112Y-60.078
T12
X99.722Y-109.12
X99.722Y-139.82
X174.422Y-109.12
X174.422Y-139.82
T13
X81.026Y-52.324
X207.01Y-52.324
X81.026Y-139.192
X207.01Y-139.192
T9
G00X190.958Y-125.476
M15
G01X192.708Y-125.476
M16
G05
G00X190.958Y-130.976
M15
G01X192.708Y-130.976
M16
G05
G00X190.958Y-135.476
M15
G01X192.708Y-135.476
M16
G05
G00X83.05Y-86.152
M15
G01X83.05Y-85.552
M16
G05
G00X86.35Y-90.552
M15
G01X85.75Y-90.552
M16
G05
G00X89.05Y-86.152
M15
G01X89.05Y-85.552
M16
G05
T0
M30
