G04 #@! TF.GenerationSoftware,KiCad,Pcbnew,(5.1.4)-1*
G04 #@! TF.CreationDate,2020-07-21T13:34:30-04:00*
G04 #@! TF.ProjectId,DC_LOAD_V01,44435f4c-4f41-4445-9f56-30312e6b6963,V01*
G04 #@! TF.SameCoordinates,Original*
G04 #@! TF.FileFunction,Legend,Top*
G04 #@! TF.FilePolarity,Positive*
%FSLAX46Y46*%
G04 Gerber Fmt 4.6, Leading zero omitted, Abs format (unit mm)*
G04 Created by KiCad (PCBNEW (5.1.4)-1) date 2020-07-21 13:34:30*
%MOMM*%
%LPD*%
G04 APERTURE LIST*
%ADD10C,0.200000*%
%ADD11C,0.100000*%
G04 APERTURE END LIST*
D10*
X95834200Y-92964000D02*
X95834200Y-85344000D01*
X105968800Y-92964000D02*
X95834200Y-92964000D01*
X105968800Y-85344000D02*
X105968800Y-92964000D01*
X95834200Y-85344000D02*
X105968800Y-85344000D01*
X87388000Y-104266857D02*
X87316571Y-104409714D01*
X87316571Y-104624000D01*
X87388000Y-104838285D01*
X87530857Y-104981142D01*
X87673714Y-105052571D01*
X87959428Y-105124000D01*
X88173714Y-105124000D01*
X88459428Y-105052571D01*
X88602285Y-104981142D01*
X88745142Y-104838285D01*
X88816571Y-104624000D01*
X88816571Y-104481142D01*
X88745142Y-104266857D01*
X88673714Y-104195428D01*
X88173714Y-104195428D01*
X88173714Y-104481142D01*
X88816571Y-103552571D02*
X87316571Y-103552571D01*
X88816571Y-102695428D01*
X87316571Y-102695428D01*
X88816571Y-101981142D02*
X87316571Y-101981142D01*
X87316571Y-101624000D01*
X87388000Y-101409714D01*
X87530857Y-101266857D01*
X87673714Y-101195428D01*
X87959428Y-101124000D01*
X88173714Y-101124000D01*
X88459428Y-101195428D01*
X88602285Y-101266857D01*
X88745142Y-101409714D01*
X88816571Y-101624000D01*
X88816571Y-101981142D01*
X85284571Y-105124000D02*
X86784571Y-104624000D01*
X85284571Y-104124000D01*
X86641714Y-102766857D02*
X86713142Y-102838285D01*
X86784571Y-103052571D01*
X86784571Y-103195428D01*
X86713142Y-103409714D01*
X86570285Y-103552571D01*
X86427428Y-103624000D01*
X86141714Y-103695428D01*
X85927428Y-103695428D01*
X85641714Y-103624000D01*
X85498857Y-103552571D01*
X85356000Y-103409714D01*
X85284571Y-103195428D01*
X85284571Y-103052571D01*
X85356000Y-102838285D01*
X85427428Y-102766857D01*
X86641714Y-101266857D02*
X86713142Y-101338285D01*
X86784571Y-101552571D01*
X86784571Y-101695428D01*
X86713142Y-101909714D01*
X86570285Y-102052571D01*
X86427428Y-102124000D01*
X86141714Y-102195428D01*
X85927428Y-102195428D01*
X85641714Y-102124000D01*
X85498857Y-102052571D01*
X85356000Y-101909714D01*
X85284571Y-101695428D01*
X85284571Y-101552571D01*
X85356000Y-101338285D01*
X85427428Y-101266857D01*
X84681142Y-104945428D02*
X84752571Y-104731142D01*
X84752571Y-104374000D01*
X84681142Y-104231142D01*
X84609714Y-104159714D01*
X84466857Y-104088285D01*
X84324000Y-104088285D01*
X84181142Y-104159714D01*
X84109714Y-104231142D01*
X84038285Y-104374000D01*
X83966857Y-104659714D01*
X83895428Y-104802571D01*
X83824000Y-104874000D01*
X83681142Y-104945428D01*
X83538285Y-104945428D01*
X83395428Y-104874000D01*
X83324000Y-104802571D01*
X83252571Y-104659714D01*
X83252571Y-104302571D01*
X83324000Y-104088285D01*
X84752571Y-103445428D02*
X83252571Y-103445428D01*
X83252571Y-103088285D01*
X83324000Y-102874000D01*
X83466857Y-102731142D01*
X83609714Y-102659714D01*
X83895428Y-102588285D01*
X84109714Y-102588285D01*
X84395428Y-102659714D01*
X84538285Y-102731142D01*
X84681142Y-102874000D01*
X84752571Y-103088285D01*
X84752571Y-103445428D01*
X84324000Y-102016857D02*
X84324000Y-101302571D01*
X84752571Y-102159714D02*
X83252571Y-101659714D01*
X84752571Y-101159714D01*
X82649142Y-104909714D02*
X82720571Y-104695428D01*
X82720571Y-104338285D01*
X82649142Y-104195428D01*
X82577714Y-104124000D01*
X82434857Y-104052571D01*
X82292000Y-104052571D01*
X82149142Y-104124000D01*
X82077714Y-104195428D01*
X82006285Y-104338285D01*
X81934857Y-104624000D01*
X81863428Y-104766857D01*
X81792000Y-104838285D01*
X81649142Y-104909714D01*
X81506285Y-104909714D01*
X81363428Y-104838285D01*
X81292000Y-104766857D01*
X81220571Y-104624000D01*
X81220571Y-104266857D01*
X81292000Y-104052571D01*
X82577714Y-102552571D02*
X82649142Y-102624000D01*
X82720571Y-102838285D01*
X82720571Y-102981142D01*
X82649142Y-103195428D01*
X82506285Y-103338285D01*
X82363428Y-103409714D01*
X82077714Y-103481142D01*
X81863428Y-103481142D01*
X81577714Y-103409714D01*
X81434857Y-103338285D01*
X81292000Y-103195428D01*
X81220571Y-102981142D01*
X81220571Y-102838285D01*
X81292000Y-102624000D01*
X81363428Y-102552571D01*
X82720571Y-101195428D02*
X82720571Y-101909714D01*
X81220571Y-101909714D01*
X181154285Y-121074571D02*
X180440000Y-121074571D01*
X180440000Y-119574571D01*
X181868571Y-121074571D02*
X181725714Y-121003142D01*
X181654285Y-120931714D01*
X181582857Y-120788857D01*
X181582857Y-120360285D01*
X181654285Y-120217428D01*
X181725714Y-120146000D01*
X181868571Y-120074571D01*
X182082857Y-120074571D01*
X182225714Y-120146000D01*
X182297142Y-120217428D01*
X182368571Y-120360285D01*
X182368571Y-120788857D01*
X182297142Y-120931714D01*
X182225714Y-121003142D01*
X182082857Y-121074571D01*
X181868571Y-121074571D01*
X183654285Y-121074571D02*
X183654285Y-120288857D01*
X183582857Y-120146000D01*
X183440000Y-120074571D01*
X183154285Y-120074571D01*
X183011428Y-120146000D01*
X183654285Y-121003142D02*
X183511428Y-121074571D01*
X183154285Y-121074571D01*
X183011428Y-121003142D01*
X182940000Y-120860285D01*
X182940000Y-120717428D01*
X183011428Y-120574571D01*
X183154285Y-120503142D01*
X183511428Y-120503142D01*
X183654285Y-120431714D01*
X185011428Y-121074571D02*
X185011428Y-119574571D01*
X185011428Y-121003142D02*
X184868571Y-121074571D01*
X184582857Y-121074571D01*
X184440000Y-121003142D01*
X184368571Y-120931714D01*
X184297142Y-120788857D01*
X184297142Y-120360285D01*
X184368571Y-120217428D01*
X184440000Y-120146000D01*
X184582857Y-120074571D01*
X184868571Y-120074571D01*
X185011428Y-120146000D01*
X186797142Y-120646000D02*
X187511428Y-120646000D01*
X186654285Y-121074571D02*
X187154285Y-119574571D01*
X187654285Y-121074571D01*
X188797142Y-121074571D02*
X188797142Y-119574571D01*
X188797142Y-121003142D02*
X188654285Y-121074571D01*
X188368571Y-121074571D01*
X188225714Y-121003142D01*
X188154285Y-120931714D01*
X188082857Y-120788857D01*
X188082857Y-120360285D01*
X188154285Y-120217428D01*
X188225714Y-120146000D01*
X188368571Y-120074571D01*
X188654285Y-120074571D01*
X188797142Y-120146000D01*
X189511428Y-120074571D02*
X189511428Y-121360285D01*
X189440000Y-121503142D01*
X189297142Y-121574571D01*
X189225714Y-121574571D01*
X189511428Y-119574571D02*
X189440000Y-119646000D01*
X189511428Y-119717428D01*
X189582857Y-119646000D01*
X189511428Y-119574571D01*
X189511428Y-119717428D01*
X190868571Y-120074571D02*
X190868571Y-121074571D01*
X190225714Y-120074571D02*
X190225714Y-120860285D01*
X190297142Y-121003142D01*
X190440000Y-121074571D01*
X190654285Y-121074571D01*
X190797142Y-121003142D01*
X190868571Y-120931714D01*
X191511428Y-121003142D02*
X191654285Y-121074571D01*
X191940000Y-121074571D01*
X192082857Y-121003142D01*
X192154285Y-120860285D01*
X192154285Y-120788857D01*
X192082857Y-120646000D01*
X191940000Y-120574571D01*
X191725714Y-120574571D01*
X191582857Y-120503142D01*
X191511428Y-120360285D01*
X191511428Y-120288857D01*
X191582857Y-120146000D01*
X191725714Y-120074571D01*
X191940000Y-120074571D01*
X192082857Y-120146000D01*
X192582857Y-120074571D02*
X193154285Y-120074571D01*
X192797142Y-119574571D02*
X192797142Y-120860285D01*
X192868571Y-121003142D01*
X193011428Y-121074571D01*
X193154285Y-121074571D01*
X86249142Y-119722571D02*
X85534857Y-119722571D01*
X85534857Y-118222571D01*
X86963428Y-119722571D02*
X86820571Y-119651142D01*
X86749142Y-119579714D01*
X86677714Y-119436857D01*
X86677714Y-119008285D01*
X86749142Y-118865428D01*
X86820571Y-118794000D01*
X86963428Y-118722571D01*
X87177714Y-118722571D01*
X87320571Y-118794000D01*
X87392000Y-118865428D01*
X87463428Y-119008285D01*
X87463428Y-119436857D01*
X87392000Y-119579714D01*
X87320571Y-119651142D01*
X87177714Y-119722571D01*
X86963428Y-119722571D01*
X88749142Y-119722571D02*
X88749142Y-118936857D01*
X88677714Y-118794000D01*
X88534857Y-118722571D01*
X88249142Y-118722571D01*
X88106285Y-118794000D01*
X88749142Y-119651142D02*
X88606285Y-119722571D01*
X88249142Y-119722571D01*
X88106285Y-119651142D01*
X88034857Y-119508285D01*
X88034857Y-119365428D01*
X88106285Y-119222571D01*
X88249142Y-119151142D01*
X88606285Y-119151142D01*
X88749142Y-119079714D01*
X90106285Y-119722571D02*
X90106285Y-118222571D01*
X90106285Y-119651142D02*
X89963428Y-119722571D01*
X89677714Y-119722571D01*
X89534857Y-119651142D01*
X89463428Y-119579714D01*
X89392000Y-119436857D01*
X89392000Y-119008285D01*
X89463428Y-118865428D01*
X89534857Y-118794000D01*
X89677714Y-118722571D01*
X89963428Y-118722571D01*
X90106285Y-118794000D01*
X84606285Y-120672571D02*
X84892000Y-120672571D01*
X85034857Y-120744000D01*
X85177714Y-120886857D01*
X85249142Y-121172571D01*
X85249142Y-121672571D01*
X85177714Y-121958285D01*
X85034857Y-122101142D01*
X84892000Y-122172571D01*
X84606285Y-122172571D01*
X84463428Y-122101142D01*
X84320571Y-121958285D01*
X84249142Y-121672571D01*
X84249142Y-121172571D01*
X84320571Y-120886857D01*
X84463428Y-120744000D01*
X84606285Y-120672571D01*
X85892000Y-122172571D02*
X85892000Y-120672571D01*
X86749142Y-122172571D01*
X86749142Y-120672571D01*
X88534857Y-120601142D02*
X87249142Y-122529714D01*
X89320571Y-120672571D02*
X89606285Y-120672571D01*
X89749142Y-120744000D01*
X89892000Y-120886857D01*
X89963428Y-121172571D01*
X89963428Y-121672571D01*
X89892000Y-121958285D01*
X89749142Y-122101142D01*
X89606285Y-122172571D01*
X89320571Y-122172571D01*
X89177714Y-122101142D01*
X89034857Y-121958285D01*
X88963428Y-121672571D01*
X88963428Y-121172571D01*
X89034857Y-120886857D01*
X89177714Y-120744000D01*
X89320571Y-120672571D01*
X91106285Y-121386857D02*
X90606285Y-121386857D01*
X90606285Y-122172571D02*
X90606285Y-120672571D01*
X91320571Y-120672571D01*
X92392000Y-121386857D02*
X91892000Y-121386857D01*
X91892000Y-122172571D02*
X91892000Y-120672571D01*
X92606285Y-120672571D01*
X130601806Y-56896000D02*
G75*
G03X130601806Y-56896000I-2839806J0D01*
G01*
X190291806Y-56896000D02*
G75*
G03X190291806Y-56896000I-2839806J0D01*
G01*
X186309143Y-57110285D02*
X188594856Y-57110285D01*
X126619143Y-57110285D02*
X128904856Y-57110285D01*
X127762000Y-58253142D02*
X127762000Y-55967428D01*
X201652000Y-79656000D02*
X184652000Y-79656000D01*
X201652000Y-107796000D02*
X184652000Y-107796000D01*
X201652000Y-107796000D02*
X201652000Y-79656000D01*
X184652000Y-79656000D02*
X184652000Y-107796000D01*
X198882000Y-106426000D02*
X198882000Y-81026000D01*
X198882000Y-81026000D02*
X201625200Y-81026000D01*
X198882000Y-106426000D02*
X201676000Y-106426000D01*
X141671500Y-98174000D02*
X141671500Y-80134000D01*
X98231500Y-98174000D02*
X141671500Y-98174000D01*
X98231500Y-80134000D02*
X98231500Y-98174000D01*
X100901500Y-82804000D02*
X100901500Y-80134000D01*
X139001500Y-82804000D02*
X100901500Y-82804000D01*
X100901500Y-95504000D02*
X100901500Y-98174000D01*
X139001500Y-95504000D02*
X100901500Y-95504000D01*
X139001500Y-95504000D02*
X139001500Y-98174000D01*
X141671500Y-80134000D02*
X98231500Y-80134000D01*
X139001500Y-82804000D02*
X139001500Y-80134000D01*
X75350000Y-90352000D02*
X75350000Y-81352000D01*
X75350000Y-81352000D02*
X89750000Y-81352000D01*
X89750000Y-90352000D02*
X87900000Y-90352000D01*
X89750000Y-81352000D02*
X89750000Y-84302000D01*
X84300000Y-90352000D02*
X75350000Y-90352000D01*
X89750000Y-87302000D02*
X89750000Y-90352000D01*
X135862000Y-64128000D02*
X132362000Y-64128000D01*
X131362000Y-63128000D02*
X132362000Y-64128000D01*
X136862000Y-63128000D02*
X135862000Y-64128000D01*
X136862000Y-49528000D02*
X131362000Y-49528000D01*
X136862000Y-49528000D02*
X136862000Y-63128000D01*
X131362000Y-49528000D02*
X131362000Y-63128000D01*
X178352000Y-49528000D02*
X178352000Y-63128000D01*
X183852000Y-49528000D02*
X183852000Y-63128000D01*
X183852000Y-49528000D02*
X178352000Y-49528000D01*
X183852000Y-63128000D02*
X182852000Y-64128000D01*
X178352000Y-63128000D02*
X179352000Y-64128000D01*
X182852000Y-64128000D02*
X179352000Y-64128000D01*
X203742000Y-110683000D02*
X201642000Y-110683000D01*
X201642000Y-110683000D02*
X201642000Y-120203000D01*
X201642000Y-120203000D02*
X203742000Y-120203000D01*
X203742000Y-120203000D02*
X203742000Y-110683000D01*
X199932000Y-120203000D02*
X199932000Y-110683000D01*
X197832000Y-120203000D02*
X199932000Y-120203000D01*
X197832000Y-110683000D02*
X197832000Y-120203000D01*
X199932000Y-110683000D02*
X197832000Y-110683000D01*
X153382000Y-87945000D02*
X155482000Y-87945000D01*
X155482000Y-87945000D02*
X155482000Y-78425000D01*
X155482000Y-78425000D02*
X153382000Y-78425000D01*
X153382000Y-78425000D02*
X153382000Y-87945000D01*
X139126000Y-72356000D02*
X129606000Y-72356000D01*
X139126000Y-74456000D02*
X139126000Y-72356000D01*
X129606000Y-74456000D02*
X139126000Y-74456000D01*
X129606000Y-72356000D02*
X129606000Y-74456000D01*
X143222000Y-88966000D02*
X143222000Y-98486000D01*
X145322000Y-88966000D02*
X143222000Y-88966000D01*
X145322000Y-98486000D02*
X145322000Y-88966000D01*
X143222000Y-98486000D02*
X145322000Y-98486000D01*
X126812000Y-76166000D02*
X126812000Y-78266000D01*
X126812000Y-78266000D02*
X136332000Y-78266000D01*
X136332000Y-78266000D02*
X136332000Y-76166000D01*
X136332000Y-76166000D02*
X126812000Y-76166000D01*
X158372500Y-78105000D02*
X158372500Y-82248500D01*
X168652500Y-78105000D02*
X158372500Y-78105000D01*
X168649000Y-88392000D02*
X168652500Y-78105000D01*
X158369000Y-88392000D02*
X168649000Y-88392000D01*
X158372500Y-84248500D02*
X158369000Y-88392000D01*
X158372500Y-82248500D02*
G75*
G02X158372500Y-84248500I0J-1000000D01*
G01*
X113270000Y-52006500D02*
X95313500Y-52006500D01*
X113270000Y-62420500D02*
X113270000Y-52006500D01*
X95313500Y-62420500D02*
X113270000Y-62420500D01*
X95317000Y-56213500D02*
G75*
G02X95317000Y-58213500I0J-1000000D01*
G01*
X95317000Y-56213500D02*
X95313500Y-52006500D01*
X95317000Y-58213500D02*
X95313500Y-62420500D01*
X203083500Y-124476000D02*
X203083500Y-142476000D01*
X180583500Y-124476000D02*
X180583500Y-142476000D01*
X203083500Y-124476000D02*
X195083500Y-124476000D01*
X180583500Y-124476000D02*
X188583500Y-124476000D01*
X180583500Y-142476000D02*
X203083500Y-142476000D01*
X195083500Y-147476000D02*
X195083500Y-164476000D01*
X188583500Y-147476000D02*
X188583500Y-164476000D01*
X188583500Y-164476000D02*
X195083500Y-164476000D01*
X197083500Y-142476000D02*
X197083500Y-143476000D01*
X186583500Y-142476000D02*
X186583500Y-143476000D01*
X187083500Y-143476000D02*
X187083500Y-147476000D01*
X196583500Y-143476000D02*
X196583500Y-147476000D01*
X196583500Y-143476000D02*
X197083500Y-143476000D01*
X186583500Y-143476000D02*
X187083500Y-143476000D01*
X187083500Y-147476000D02*
X188583500Y-147476000D01*
X196583500Y-147476000D02*
X195083500Y-147476000D01*
X176822000Y-142220000D02*
X97322000Y-142220000D01*
X176822000Y-106720000D02*
X97322000Y-106720000D01*
X176822000Y-106720000D02*
X176822000Y-142220000D01*
X97322000Y-106720000D02*
X97322000Y-142220000D01*
X158242000Y-93345000D02*
X158242000Y-94234000D01*
X158242000Y-91567000D02*
X158242000Y-90678000D01*
X163242000Y-91567000D02*
X163242000Y-90678000D01*
X163242000Y-94234000D02*
X163242000Y-93345000D01*
X158242000Y-90678000D02*
X163242000Y-90678000D01*
X158242000Y-94234000D02*
X163242000Y-94234000D01*
X112522000Y-71183500D02*
X117522000Y-71183500D01*
X112522000Y-67627500D02*
X117522000Y-67627500D01*
X117522000Y-71183500D02*
X117522000Y-70294500D01*
X117522000Y-68516500D02*
X117522000Y-67627500D01*
X112522000Y-68516500D02*
X112522000Y-67627500D01*
X112522000Y-70294500D02*
X112522000Y-71183500D01*
X147163000Y-59659000D02*
X144663000Y-63379000D01*
X144663000Y-63379000D02*
X144483000Y-63319000D01*
X144483000Y-63319000D02*
X145143000Y-60519000D01*
X145143000Y-60519000D02*
X139843000Y-63399000D01*
X139723000Y-63279000D02*
X141873000Y-59509000D01*
X139823000Y-60189000D02*
X139733000Y-60039000D01*
X141873000Y-59509000D02*
X139823000Y-60189000D01*
X139733000Y-60039000D02*
X141693000Y-58149000D01*
X139843000Y-63399000D02*
X139723000Y-63279000D01*
X148783000Y-50169000D02*
X147173000Y-53879000D01*
X149453000Y-55919000D02*
X149453000Y-50169000D01*
X149453000Y-50169000D02*
X148783000Y-50169000D01*
X145143000Y-53019000D02*
X139843000Y-50139000D01*
X144663000Y-50159000D02*
X144483000Y-50219000D01*
X144483000Y-50219000D02*
X145143000Y-53019000D01*
X147163000Y-53879000D02*
X144663000Y-50159000D01*
X139733000Y-53499000D02*
X141693000Y-55389000D01*
X139723000Y-50259000D02*
X141873000Y-54029000D01*
X139823000Y-53349000D02*
X139733000Y-53499000D01*
X139843000Y-50139000D02*
X139723000Y-50259000D01*
X141873000Y-54029000D02*
X139823000Y-53349000D01*
X157353000Y-55919000D02*
X149453000Y-55919000D01*
X149453000Y-57619000D02*
X149453000Y-63369000D01*
X149453000Y-63369000D02*
X148783000Y-63369000D01*
X148783000Y-63369000D02*
X147173000Y-59659000D01*
X157353000Y-57619000D02*
X149453000Y-57619000D01*
X170223000Y-50219000D02*
X169563000Y-53019000D01*
X170043000Y-50159000D02*
X170223000Y-50219000D01*
X167543000Y-53879000D02*
X170043000Y-50159000D01*
X169563000Y-53019000D02*
X174863000Y-50139000D01*
X174973000Y-53499000D02*
X173013000Y-55389000D01*
X172833000Y-54029000D02*
X174883000Y-53349000D01*
X174983000Y-50259000D02*
X172833000Y-54029000D01*
X174863000Y-50139000D02*
X174983000Y-50259000D01*
X174883000Y-53349000D02*
X174973000Y-53499000D01*
X165923000Y-50169000D02*
X167533000Y-53879000D01*
X157353000Y-55919000D02*
X165253000Y-55919000D01*
X165253000Y-55919000D02*
X165253000Y-50169000D01*
X165253000Y-50169000D02*
X165923000Y-50169000D01*
X157353000Y-57619000D02*
X165253000Y-57619000D01*
X165253000Y-57619000D02*
X165253000Y-63369000D01*
X165253000Y-63369000D02*
X165923000Y-63369000D01*
X165923000Y-63369000D02*
X167533000Y-59659000D01*
X167543000Y-59659000D02*
X170043000Y-63379000D01*
X170043000Y-63379000D02*
X170223000Y-63319000D01*
X170223000Y-63319000D02*
X169563000Y-60519000D01*
X169563000Y-60519000D02*
X174863000Y-63399000D01*
X174863000Y-63399000D02*
X174983000Y-63279000D01*
X174983000Y-63279000D02*
X172833000Y-59509000D01*
X172833000Y-59509000D02*
X174883000Y-60189000D01*
X174883000Y-60189000D02*
X174973000Y-60039000D01*
X174973000Y-60039000D02*
X173013000Y-58149000D01*
X94952000Y-69866000D02*
G75*
G03X94952000Y-69866000I-2750000J0D01*
G01*
D11*
G36*
X93091000Y-68834000D02*
G01*
X94678500Y-68834000D01*
X94297500Y-68072000D01*
X93916500Y-67754500D01*
X93408500Y-67373500D01*
X92710000Y-67183000D01*
X92202000Y-67116000D01*
X91249500Y-67246500D01*
X90424000Y-67754500D01*
X89979500Y-68262500D01*
X89725500Y-68834000D01*
X91313000Y-68834000D01*
X91313000Y-67945000D01*
X93091000Y-67945000D01*
X93091000Y-68834000D01*
G37*
X93091000Y-68834000D02*
X94678500Y-68834000D01*
X94297500Y-68072000D01*
X93916500Y-67754500D01*
X93408500Y-67373500D01*
X92710000Y-67183000D01*
X92202000Y-67116000D01*
X91249500Y-67246500D01*
X90424000Y-67754500D01*
X89979500Y-68262500D01*
X89725500Y-68834000D01*
X91313000Y-68834000D01*
X91313000Y-67945000D01*
X93091000Y-67945000D01*
X93091000Y-68834000D01*
D10*
X148629125Y-72810125D02*
G75*
G02X144395500Y-71056500I-1753625J1753625D01*
G01*
X148629125Y-69302875D02*
G75*
G03X144395500Y-71056500I-1753625J-1753625D01*
G01*
X148625500Y-72826500D02*
X148625500Y-69326500D01*
X89979500Y-130376000D02*
X85725000Y-130376000D01*
X84884000Y-128397000D02*
X84884000Y-126365000D01*
X85725000Y-124386000D02*
X90043000Y-124386000D01*
X90879000Y-128397000D02*
X90879000Y-126365000D01*
X152258400Y-57803000D02*
X162498400Y-57803000D01*
X162498400Y-57803000D02*
X162498400Y-60934000D01*
X152258400Y-57803000D02*
X152258400Y-60934000D01*
X152258400Y-60934000D02*
X162498400Y-60934000D01*
X169352600Y-69004400D02*
X179592600Y-69004400D01*
X179592600Y-69004400D02*
X179592600Y-72135400D01*
X169352600Y-69004400D02*
X169352600Y-72135400D01*
X169352600Y-72135400D02*
X179592600Y-72135400D01*
X184920071Y-78101000D02*
X185634357Y-78101000D01*
X184777214Y-78529571D02*
X185277214Y-77029571D01*
X185777214Y-78529571D01*
X186205785Y-77172428D02*
X186277214Y-77101000D01*
X186420071Y-77029571D01*
X186777214Y-77029571D01*
X186920071Y-77101000D01*
X186991500Y-77172428D01*
X187062928Y-77315285D01*
X187062928Y-77458142D01*
X186991500Y-77672428D01*
X186134357Y-78529571D01*
X187062928Y-78529571D01*
X98750571Y-78609000D02*
X99464857Y-78609000D01*
X98607714Y-79037571D02*
X99107714Y-77537571D01*
X99607714Y-79037571D01*
X100893428Y-79037571D02*
X100036285Y-79037571D01*
X100464857Y-79037571D02*
X100464857Y-77537571D01*
X100322000Y-77751857D01*
X100179142Y-77894714D01*
X100036285Y-77966142D01*
X78494000Y-78934571D02*
X78494000Y-80006000D01*
X78422571Y-80220285D01*
X78279714Y-80363142D01*
X78065428Y-80434571D01*
X77922571Y-80434571D01*
X79994000Y-80434571D02*
X79136857Y-80434571D01*
X79565428Y-80434571D02*
X79565428Y-78934571D01*
X79422571Y-79148857D01*
X79279714Y-79291714D01*
X79136857Y-79363142D01*
X133612000Y-64964571D02*
X133612000Y-66036000D01*
X133540571Y-66250285D01*
X133397714Y-66393142D01*
X133183428Y-66464571D01*
X133040571Y-66464571D01*
X134183428Y-64964571D02*
X135183428Y-64964571D01*
X134540571Y-66464571D01*
X180602000Y-64964571D02*
X180602000Y-66036000D01*
X180530571Y-66250285D01*
X180387714Y-66393142D01*
X180173428Y-66464571D01*
X180030571Y-66464571D01*
X181530571Y-65607428D02*
X181387714Y-65536000D01*
X181316285Y-65464571D01*
X181244857Y-65321714D01*
X181244857Y-65250285D01*
X181316285Y-65107428D01*
X181387714Y-65036000D01*
X181530571Y-64964571D01*
X181816285Y-64964571D01*
X181959142Y-65036000D01*
X182030571Y-65107428D01*
X182102000Y-65250285D01*
X182102000Y-65321714D01*
X182030571Y-65464571D01*
X181959142Y-65536000D01*
X181816285Y-65607428D01*
X181530571Y-65607428D01*
X181387714Y-65678857D01*
X181316285Y-65750285D01*
X181244857Y-65893142D01*
X181244857Y-66178857D01*
X181316285Y-66321714D01*
X181387714Y-66393142D01*
X181530571Y-66464571D01*
X181816285Y-66464571D01*
X181959142Y-66393142D01*
X182030571Y-66321714D01*
X182102000Y-66178857D01*
X182102000Y-65893142D01*
X182030571Y-65750285D01*
X181959142Y-65678857D01*
X181816285Y-65607428D01*
X202759500Y-122344571D02*
X202259500Y-121630285D01*
X201902357Y-122344571D02*
X201902357Y-120844571D01*
X202473785Y-120844571D01*
X202616642Y-120916000D01*
X202688071Y-120987428D01*
X202759500Y-121130285D01*
X202759500Y-121344571D01*
X202688071Y-121487428D01*
X202616642Y-121558857D01*
X202473785Y-121630285D01*
X201902357Y-121630285D01*
X204188071Y-122344571D02*
X203330928Y-122344571D01*
X203759500Y-122344571D02*
X203759500Y-120844571D01*
X203616642Y-121058857D01*
X203473785Y-121201714D01*
X203330928Y-121273142D01*
X198632000Y-122344571D02*
X198132000Y-121630285D01*
X197774857Y-122344571D02*
X197774857Y-120844571D01*
X198346285Y-120844571D01*
X198489142Y-120916000D01*
X198560571Y-120987428D01*
X198632000Y-121130285D01*
X198632000Y-121344571D01*
X198560571Y-121487428D01*
X198489142Y-121558857D01*
X198346285Y-121630285D01*
X197774857Y-121630285D01*
X199203428Y-120987428D02*
X199274857Y-120916000D01*
X199417714Y-120844571D01*
X199774857Y-120844571D01*
X199917714Y-120916000D01*
X199989142Y-120987428D01*
X200060571Y-121130285D01*
X200060571Y-121273142D01*
X199989142Y-121487428D01*
X199132000Y-122344571D01*
X200060571Y-122344571D01*
X154182000Y-77894571D02*
X153682000Y-77180285D01*
X153324857Y-77894571D02*
X153324857Y-76394571D01*
X153896285Y-76394571D01*
X154039142Y-76466000D01*
X154110571Y-76537428D01*
X154182000Y-76680285D01*
X154182000Y-76894571D01*
X154110571Y-77037428D01*
X154039142Y-77108857D01*
X153896285Y-77180285D01*
X153324857Y-77180285D01*
X154682000Y-76394571D02*
X155610571Y-76394571D01*
X155110571Y-76966000D01*
X155324857Y-76966000D01*
X155467714Y-77037428D01*
X155539142Y-77108857D01*
X155610571Y-77251714D01*
X155610571Y-77608857D01*
X155539142Y-77751714D01*
X155467714Y-77823142D01*
X155324857Y-77894571D01*
X154896285Y-77894571D01*
X154753428Y-77823142D01*
X154682000Y-77751714D01*
X127512000Y-74084571D02*
X127012000Y-73370285D01*
X126654857Y-74084571D02*
X126654857Y-72584571D01*
X127226285Y-72584571D01*
X127369142Y-72656000D01*
X127440571Y-72727428D01*
X127512000Y-72870285D01*
X127512000Y-73084571D01*
X127440571Y-73227428D01*
X127369142Y-73298857D01*
X127226285Y-73370285D01*
X126654857Y-73370285D01*
X128797714Y-73084571D02*
X128797714Y-74084571D01*
X128440571Y-72513142D02*
X128083428Y-73584571D01*
X129012000Y-73584571D01*
X144022000Y-88054571D02*
X143522000Y-87340285D01*
X143164857Y-88054571D02*
X143164857Y-86554571D01*
X143736285Y-86554571D01*
X143879142Y-86626000D01*
X143950571Y-86697428D01*
X144022000Y-86840285D01*
X144022000Y-87054571D01*
X143950571Y-87197428D01*
X143879142Y-87268857D01*
X143736285Y-87340285D01*
X143164857Y-87340285D01*
X145379142Y-86554571D02*
X144664857Y-86554571D01*
X144593428Y-87268857D01*
X144664857Y-87197428D01*
X144807714Y-87126000D01*
X145164857Y-87126000D01*
X145307714Y-87197428D01*
X145379142Y-87268857D01*
X145450571Y-87411714D01*
X145450571Y-87768857D01*
X145379142Y-87911714D01*
X145307714Y-87983142D01*
X145164857Y-88054571D01*
X144807714Y-88054571D01*
X144664857Y-87983142D01*
X144593428Y-87911714D01*
X124718000Y-77958071D02*
X124218000Y-77243785D01*
X123860857Y-77958071D02*
X123860857Y-76458071D01*
X124432285Y-76458071D01*
X124575142Y-76529500D01*
X124646571Y-76600928D01*
X124718000Y-76743785D01*
X124718000Y-76958071D01*
X124646571Y-77100928D01*
X124575142Y-77172357D01*
X124432285Y-77243785D01*
X123860857Y-77243785D01*
X125218000Y-76458071D02*
X126218000Y-76458071D01*
X125575142Y-77958071D01*
X169418142Y-82617571D02*
X169418142Y-83831857D01*
X169489571Y-83974714D01*
X169561000Y-84046142D01*
X169703857Y-84117571D01*
X169989571Y-84117571D01*
X170132428Y-84046142D01*
X170203857Y-83974714D01*
X170275285Y-83831857D01*
X170275285Y-82617571D01*
X171775285Y-84117571D02*
X170918142Y-84117571D01*
X171346714Y-84117571D02*
X171346714Y-82617571D01*
X171203857Y-82831857D01*
X171061000Y-82974714D01*
X170918142Y-83046142D01*
X114427142Y-56455571D02*
X114427142Y-57669857D01*
X114498571Y-57812714D01*
X114570000Y-57884142D01*
X114712857Y-57955571D01*
X114998571Y-57955571D01*
X115141428Y-57884142D01*
X115212857Y-57812714D01*
X115284285Y-57669857D01*
X115284285Y-56455571D01*
X115927142Y-56598428D02*
X115998571Y-56527000D01*
X116141428Y-56455571D01*
X116498571Y-56455571D01*
X116641428Y-56527000D01*
X116712857Y-56598428D01*
X116784285Y-56741285D01*
X116784285Y-56884142D01*
X116712857Y-57098428D01*
X115855714Y-57955571D01*
X116784285Y-57955571D01*
X205101142Y-134282571D02*
X204601142Y-133568285D01*
X204244000Y-134282571D02*
X204244000Y-132782571D01*
X204815428Y-132782571D01*
X204958285Y-132854000D01*
X205029714Y-132925428D01*
X205101142Y-133068285D01*
X205101142Y-133282571D01*
X205029714Y-133425428D01*
X204958285Y-133496857D01*
X204815428Y-133568285D01*
X204244000Y-133568285D01*
X205529714Y-132782571D02*
X206029714Y-134282571D01*
X206529714Y-132782571D01*
X207815428Y-134282571D02*
X206958285Y-134282571D01*
X207386857Y-134282571D02*
X207386857Y-132782571D01*
X207244000Y-132996857D01*
X207101142Y-133139714D01*
X206958285Y-133211142D01*
X97746571Y-105072571D02*
X97746571Y-103572571D01*
X98103714Y-103572571D01*
X98318000Y-103644000D01*
X98460857Y-103786857D01*
X98532285Y-103929714D01*
X98603714Y-104215428D01*
X98603714Y-104429714D01*
X98532285Y-104715428D01*
X98460857Y-104858285D01*
X98318000Y-105001142D01*
X98103714Y-105072571D01*
X97746571Y-105072571D01*
X99175142Y-105001142D02*
X99389428Y-105072571D01*
X99746571Y-105072571D01*
X99889428Y-105001142D01*
X99960857Y-104929714D01*
X100032285Y-104786857D01*
X100032285Y-104644000D01*
X99960857Y-104501142D01*
X99889428Y-104429714D01*
X99746571Y-104358285D01*
X99460857Y-104286857D01*
X99318000Y-104215428D01*
X99246571Y-104144000D01*
X99175142Y-104001142D01*
X99175142Y-103858285D01*
X99246571Y-103715428D01*
X99318000Y-103644000D01*
X99460857Y-103572571D01*
X99818000Y-103572571D01*
X100032285Y-103644000D01*
X101460857Y-105072571D02*
X100603714Y-105072571D01*
X101032285Y-105072571D02*
X101032285Y-103572571D01*
X100889428Y-103786857D01*
X100746571Y-103929714D01*
X100603714Y-104001142D01*
X155198000Y-92991714D02*
X155126571Y-93063142D01*
X154912285Y-93134571D01*
X154769428Y-93134571D01*
X154555142Y-93063142D01*
X154412285Y-92920285D01*
X154340857Y-92777428D01*
X154269428Y-92491714D01*
X154269428Y-92277428D01*
X154340857Y-91991714D01*
X154412285Y-91848857D01*
X154555142Y-91706000D01*
X154769428Y-91634571D01*
X154912285Y-91634571D01*
X155126571Y-91706000D01*
X155198000Y-91777428D01*
X155769428Y-91777428D02*
X155840857Y-91706000D01*
X155983714Y-91634571D01*
X156340857Y-91634571D01*
X156483714Y-91706000D01*
X156555142Y-91777428D01*
X156626571Y-91920285D01*
X156626571Y-92063142D01*
X156555142Y-92277428D01*
X155698000Y-93134571D01*
X156626571Y-93134571D01*
X109351000Y-69941214D02*
X109279571Y-70012642D01*
X109065285Y-70084071D01*
X108922428Y-70084071D01*
X108708142Y-70012642D01*
X108565285Y-69869785D01*
X108493857Y-69726928D01*
X108422428Y-69441214D01*
X108422428Y-69226928D01*
X108493857Y-68941214D01*
X108565285Y-68798357D01*
X108708142Y-68655500D01*
X108922428Y-68584071D01*
X109065285Y-68584071D01*
X109279571Y-68655500D01*
X109351000Y-68726928D01*
X109851000Y-68584071D02*
X110779571Y-68584071D01*
X110279571Y-69155500D01*
X110493857Y-69155500D01*
X110636714Y-69226928D01*
X110708142Y-69298357D01*
X110779571Y-69441214D01*
X110779571Y-69798357D01*
X110708142Y-69941214D01*
X110636714Y-70012642D01*
X110493857Y-70084071D01*
X110065285Y-70084071D01*
X109922428Y-70012642D01*
X109851000Y-69941214D01*
X155470857Y-54947571D02*
X155470857Y-53447571D01*
X155470857Y-54161857D02*
X156328000Y-54161857D01*
X156328000Y-54947571D02*
X156328000Y-53447571D01*
X156970857Y-54876142D02*
X157185142Y-54947571D01*
X157542285Y-54947571D01*
X157685142Y-54876142D01*
X157756571Y-54804714D01*
X157828000Y-54661857D01*
X157828000Y-54519000D01*
X157756571Y-54376142D01*
X157685142Y-54304714D01*
X157542285Y-54233285D01*
X157256571Y-54161857D01*
X157113714Y-54090428D01*
X157042285Y-54019000D01*
X156970857Y-53876142D01*
X156970857Y-53733285D01*
X157042285Y-53590428D01*
X157113714Y-53519000D01*
X157256571Y-53447571D01*
X157613714Y-53447571D01*
X157828000Y-53519000D01*
X159256571Y-54947571D02*
X158399428Y-54947571D01*
X158828000Y-54947571D02*
X158828000Y-53447571D01*
X158685142Y-53661857D01*
X158542285Y-53804714D01*
X158399428Y-53876142D01*
X87405400Y-70639714D02*
X87333971Y-70711142D01*
X87119685Y-70782571D01*
X86976828Y-70782571D01*
X86762542Y-70711142D01*
X86619685Y-70568285D01*
X86548257Y-70425428D01*
X86476828Y-70139714D01*
X86476828Y-69925428D01*
X86548257Y-69639714D01*
X86619685Y-69496857D01*
X86762542Y-69354000D01*
X86976828Y-69282571D01*
X87119685Y-69282571D01*
X87333971Y-69354000D01*
X87405400Y-69425428D01*
X88833971Y-70782571D02*
X87976828Y-70782571D01*
X88405400Y-70782571D02*
X88405400Y-69282571D01*
X88262542Y-69496857D01*
X88119685Y-69639714D01*
X87976828Y-69711142D01*
X150606142Y-72068428D02*
X150463285Y-71997000D01*
X150320428Y-71854142D01*
X150106142Y-71639857D01*
X149963285Y-71568428D01*
X149820428Y-71568428D01*
X149891857Y-71925571D02*
X149749000Y-71854142D01*
X149606142Y-71711285D01*
X149534714Y-71425571D01*
X149534714Y-70925571D01*
X149606142Y-70639857D01*
X149749000Y-70497000D01*
X149891857Y-70425571D01*
X150177571Y-70425571D01*
X150320428Y-70497000D01*
X150463285Y-70639857D01*
X150534714Y-70925571D01*
X150534714Y-71425571D01*
X150463285Y-71711285D01*
X150320428Y-71854142D01*
X150177571Y-71925571D01*
X149891857Y-71925571D01*
X151963285Y-71925571D02*
X151106142Y-71925571D01*
X151534714Y-71925571D02*
X151534714Y-70425571D01*
X151391857Y-70639857D01*
X151249000Y-70782714D01*
X151106142Y-70854142D01*
X85757000Y-133512642D02*
X85971285Y-133584071D01*
X86328428Y-133584071D01*
X86471285Y-133512642D01*
X86542714Y-133441214D01*
X86614142Y-133298357D01*
X86614142Y-133155500D01*
X86542714Y-133012642D01*
X86471285Y-132941214D01*
X86328428Y-132869785D01*
X86042714Y-132798357D01*
X85899857Y-132726928D01*
X85828428Y-132655500D01*
X85757000Y-132512642D01*
X85757000Y-132369785D01*
X85828428Y-132226928D01*
X85899857Y-132155500D01*
X86042714Y-132084071D01*
X86399857Y-132084071D01*
X86614142Y-132155500D01*
X87114142Y-132084071D02*
X87471285Y-133584071D01*
X87757000Y-132512642D01*
X88042714Y-133584071D01*
X88399857Y-132084071D01*
X89757000Y-133584071D02*
X88899857Y-133584071D01*
X89328428Y-133584071D02*
X89328428Y-132084071D01*
X89185571Y-132298357D01*
X89042714Y-132441214D01*
X88899857Y-132512642D01*
X157337142Y-63178428D02*
X157194285Y-63107000D01*
X157051428Y-62964142D01*
X156837142Y-62749857D01*
X156694285Y-62678428D01*
X156551428Y-62678428D01*
X156622857Y-63035571D02*
X156480000Y-62964142D01*
X156337142Y-62821285D01*
X156265714Y-62535571D01*
X156265714Y-62035571D01*
X156337142Y-61749857D01*
X156480000Y-61607000D01*
X156622857Y-61535571D01*
X156908571Y-61535571D01*
X157051428Y-61607000D01*
X157194285Y-61749857D01*
X157265714Y-62035571D01*
X157265714Y-62535571D01*
X157194285Y-62821285D01*
X157051428Y-62964142D01*
X156908571Y-63035571D01*
X156622857Y-63035571D01*
X157837142Y-61678428D02*
X157908571Y-61607000D01*
X158051428Y-61535571D01*
X158408571Y-61535571D01*
X158551428Y-61607000D01*
X158622857Y-61678428D01*
X158694285Y-61821285D01*
X158694285Y-61964142D01*
X158622857Y-62178428D01*
X157765714Y-63035571D01*
X158694285Y-63035571D01*
X174375000Y-74211571D02*
X173875000Y-73497285D01*
X173517857Y-74211571D02*
X173517857Y-72711571D01*
X174089285Y-72711571D01*
X174232142Y-72783000D01*
X174303571Y-72854428D01*
X174375000Y-72997285D01*
X174375000Y-73211571D01*
X174303571Y-73354428D01*
X174232142Y-73425857D01*
X174089285Y-73497285D01*
X173517857Y-73497285D01*
X175660714Y-72711571D02*
X175375000Y-72711571D01*
X175232142Y-72783000D01*
X175160714Y-72854428D01*
X175017857Y-73068714D01*
X174946428Y-73354428D01*
X174946428Y-73925857D01*
X175017857Y-74068714D01*
X175089285Y-74140142D01*
X175232142Y-74211571D01*
X175517857Y-74211571D01*
X175660714Y-74140142D01*
X175732142Y-74068714D01*
X175803571Y-73925857D01*
X175803571Y-73568714D01*
X175732142Y-73425857D01*
X175660714Y-73354428D01*
X175517857Y-73283000D01*
X175232142Y-73283000D01*
X175089285Y-73354428D01*
X175017857Y-73425857D01*
X174946428Y-73568714D01*
M02*
